<svg xmlns="http://www.w3.org/2000/svg" width="720" height="400" viewBox="0 0 720 400">
  <style>
    svg {
      --panel: #f5f7fb;
      --title: #20242c;
      --muted: #526173;
      --edge: #64748b;
      --grid: #d7dee9;
      --ink: #2563eb;
      --ink2: #c2410c;
      --bad: #dc2626;
      --good: #0f766e;
      --band: #e6ecf6;
    }
    @media (prefers-color-scheme: dark) {
      svg {
        --panel: #1a1f27;
        --title: #e6eaf2;
        --muted: #9aa8bd;
        --edge: #8b9bb4;
        --grid: #333c48;
        --ink: #7aa2f7;
        --ink2: #f0a35e;
        --bad: #f2777a;
        --good: #4ec9a0;
        --band: #232b36;
      }
    }
    .panel { fill: var(--panel); }
    .band { fill: var(--band); }
    .title { fill: var(--title); }
    .muted { fill: var(--muted); }
    .edge { stroke: var(--edge); }
    .grid { stroke: var(--grid); }
    .ink { stroke: var(--ink); }
    .ink-f { fill: var(--ink); }
    .ink2 { stroke: var(--ink2); }
    .ink2-f { fill: var(--ink2); }
    .bad { stroke: var(--bad); }
    .bad-f { fill: var(--bad); }
    .good-f { fill: var(--good); }
    text { font-family: system-ui, sans-serif; }
    .mono { font-family: ui-monospace, SFMono-Regular, monospace; }
  </style>

  <rect class="panel" width="720" height="400" rx="20" fill="#f5f7fb" />
  <text class="title" x="32" y="42" fill="#20242c" font-size="19" font-weight="700">Weekly cases, log scale</text>
  <text class="muted" x="32" y="66" fill="#526173" font-size="14">Growth slows after week 6.</text>
  <line class="grid" x1="96" y1="328" x2="662" y2="328" stroke="#d7dee9" stroke-width="1" />
  <text class="muted mono" x="86" y="332" fill="#526173" font-size="12" text-anchor="end">100</text>
  <line class="grid" x1="96" y1="210" x2="662" y2="210" stroke="#d7dee9" stroke-width="1" />
  <text class="muted mono" x="86" y="214" fill="#526173" font-size="12" text-anchor="end">1,000</text>
  <line class="grid" x1="96" y1="92" x2="662" y2="92" stroke="#d7dee9" stroke-width="1" />
  <text class="muted mono" x="86" y="96" fill="#526173" font-size="12" text-anchor="end">10,000</text>
  <line class="edge" x1="96" y1="92" x2="96" y2="328" stroke="#64748b" stroke-width="1.5" />
  <line class="edge" x1="96" y1="328" x2="662" y2="328" stroke="#64748b" stroke-width="1.5" />
  <polyline class="ink" points="96,328 147.45,303.91 198.91,279.83 250.36,255.69 301.82,231.68 353.27,210 404.73,190.96 456.18,174.99 507.64,161.63 559.09,150.39 610.55,140.78 662,132.35" fill="none" stroke="#2563eb" stroke-width="3" stroke-linejoin="round" stroke-linecap="round" />
  <circle class="ink-f" cx="96" cy="328" r="4.5" fill="#2563eb" />
  <circle class="ink-f" cx="147.45" cy="303.91" r="4.5" fill="#2563eb" />
  <circle class="ink-f" cx="198.91" cy="279.83" r="4.5" fill="#2563eb" />
  <circle class="ink-f" cx="250.36" cy="255.69" r="4.5" fill="#2563eb" />
  <circle class="ink-f" cx="301.82" cy="231.68" r="4.5" fill="#2563eb" />
  <circle class="ink-f" cx="353.27" cy="210" r="4.5" fill="#2563eb" />
  <circle class="ink-f" cx="404.73" cy="190.96" r="4.5" fill="#2563eb" />
  <circle class="ink-f" cx="456.18" cy="174.99" r="4.5" fill="#2563eb" />
  <circle class="ink-f" cx="507.64" cy="161.63" r="4.5" fill="#2563eb" />
  <circle class="ink-f" cx="559.09" cy="150.39" r="4.5" fill="#2563eb" />
  <circle class="ink-f" cx="610.55" cy="140.78" r="4.5" fill="#2563eb" />
  <circle class="ink-f" cx="662" cy="132.35" r="4.5" fill="#2563eb" />
  <text class="muted" x="96" y="352" fill="#526173" font-size="11" text-anchor="middle">W1</text>
  <text class="muted" x="147.45" y="352" fill="#526173" font-size="11" text-anchor="middle">W2</text>
  <text class="muted" x="198.91" y="352" fill="#526173" font-size="11" text-anchor="middle">W3</text>
  <text class="muted" x="250.36" y="352" fill="#526173" font-size="11" text-anchor="middle">W4</text>
  <text class="muted" x="301.82" y="352" fill="#526173" font-size="11" text-anchor="middle">W5</text>
  <text class="muted" x="353.27" y="352" fill="#526173" font-size="11" text-anchor="middle">W6</text>
  <text class="muted" x="404.73" y="352" fill="#526173" font-size="11" text-anchor="middle">W7</text>
  <text class="muted" x="456.18" y="352" fill="#526173" font-size="11" text-anchor="middle">W8</text>
  <text class="muted" x="507.64" y="352" fill="#526173" font-size="11" text-anchor="middle">W9</text>
  <text class="muted" x="559.09" y="352" fill="#526173" font-size="11" text-anchor="middle">W10</text>
  <text class="muted" x="610.55" y="352" fill="#526173" font-size="11" text-anchor="middle">W11</text>
  <text class="muted" x="662" y="352" fill="#526173" font-size="11" text-anchor="middle">W12</text>
</svg>
