<svg xmlns="http://www.w3.org/2000/svg" viewBox="0 0 200 200">
  <g fill="none" stroke="currentColor" stroke-linecap="round" stroke-linejoin="round">
    <path stroke-width="var(--logo-stroke-width, 10)"
      d="M43.45 170.354h101.038c27.287 0 43.512-16.246 43.512-36.185C188 85.431 148.175 52.2 99.5 52.2S11 85.43 11 134.17c0 19.938 16.225 36.184 32.45 36.184" />
    <path stroke-width="var(--logo-stroke-width, 10)"
      d="M84.75 53.677v39.877c0 8.157 6.604 14.77 14.75 14.77s14.75-6.613 14.75-14.77V53.677M46.4 69.185V90.6c0 7.341 5.943 13.292 13.275 13.292S72.95 97.942 72.95 90.6V56.63m79.65 12.555V90.6c0 7.341-5.943 13.292-13.275 13.292S126.05 97.942 126.05 90.6V56.63" />
    <g class="mouth-and-eyes">
      <path class="eye eye-left" stroke-width="var(--logo-stroke-width, 10)"
        d="M63.067 124.354 79.293 132.846 63.067 141.338" />
      <path class="eye eye-right" stroke-width="var(--logo-stroke-width, 10)"
        d="M135.933 124.354 119.707 132.846 135.933 141.338" />
      <path class="mouth" stroke-width="var(--logo-stroke-width, 10)"
        d="M87.7 149.985q5.9-4.431 11.8 0 5.9 4.43 11.8 0" />
    </g>
    <circle class="thought thought-1" cx="162" cy="55" r="8" stroke-width="var(--logo-stroke-width-thin, 5)" />
    <circle class="thought thought-2" cx="184" cy="39" r="12" stroke-width="var(--logo-stroke-width-thin, 5)" />
  </g>
</svg>